<svg width="148" height="147" viewBox="0 0 148 147" fill="none" xmlns="http://www.w3.org/2000/svg">
<path d="M3.11159 73.266L55.6106 125.764C64.3166 123.32 72.5356 118.686 79.3846 111.836C100.689 90.534 100.689 55.996 79.3866 34.693C72.5366 27.844 64.3176 23.211 55.6116 20.767L3.11159 73.266Z" stroke="white" stroke-width="3" stroke-miterlimit="10"/>
<path d="M144.977 73.266L92.4776 20.768C83.7716 23.213 75.5526 27.847 68.7026 34.696C47.4006 55.999 47.4006 90.537 68.7026 111.839C75.5526 118.689 83.7716 123.322 92.4776 125.767L144.977 73.266Z" stroke="white" stroke-width="3" stroke-miterlimit="10"/>
<path d="M74.0407 2.33264L3.10938 73.264L74.0414 144.196L144.973 73.2647L74.0407 2.33264Z" stroke="white" stroke-width="3" stroke-miterlimit="10"/>
<path d="M74.0436 144.198L126.542 91.699C124.098 82.995 119.464 74.773 112.614 67.926C91.3116 46.622 56.7746 46.622 35.4706 67.923C28.6216 74.773 23.9886 82.992 21.5446 91.698L74.0436 144.198Z" stroke="white" stroke-width="3" stroke-miterlimit="10"/>
<path d="M74.0436 2.334L21.5446 54.834C23.9906 63.539 28.6246 71.759 35.4726 78.607C56.7766 99.91 91.3136 99.91 112.617 78.607C119.467 71.759 124.1 63.539 126.544 54.834L74.0436 2.334Z" stroke="white" stroke-width="3" stroke-miterlimit="10"/>
</svg>
